<svg width="16" height="16" viewBox="0 0 16 16" fill="none" xmlns="http://www.w3.org/2000/svg">
<path d="M12.6667 12.6666V6.53242L8 2.85108L3.33333 6.53242V12.6666H12.6667ZM14 13.3333C14 13.7015 13.7015 13.9999 13.3333 13.9999H2.66667C2.29848 13.9999 2 13.7015 2 13.3333V6.20919C2 6.00507 2.09351 5.8122 2.25377 5.68578L7.58713 1.47854C7.8292 1.28753 8.1708 1.28753 8.41287 1.47854L13.7462 5.68578C13.9065 5.8122 14 6.00507 14 6.20919V13.3333ZM4.66667 7.99993H6C6 9.10453 6.8954 9.99993 8 9.99993C9.1046 9.99993 10 9.10453 10 7.99993H11.3333C11.3333 9.84086 9.84093 11.3333 8 11.3333C6.15905 11.3333 4.66667 9.84086 4.66667 7.99993Z" fill="#0E0E0E"/>
</svg>
