<svg width="16" height="16" viewBox="0 0 16 16" fill="none" xmlns="http://www.w3.org/2000/svg">
<path d="M1.33301 7.99987C1.33301 7.42353 1.40614 6.86427 1.54364 6.33087C2.27049 6.36855 2.99199 6.00677 3.38087 5.33321C3.76945 4.66017 3.72238 3.85514 3.32715 3.24467C4.12203 2.46353 5.11189 1.88015 6.21703 1.57422C6.54781 2.22257 7.22187 2.66655 7.99967 2.66655C8.77747 2.66655 9.45154 2.22257 9.78234 1.57422C10.8875 1.88015 11.8773 2.46353 12.6722 3.24467C12.2769 3.85514 12.2299 4.66017 12.6185 5.33321C13.0073 6.00677 13.7289 6.36855 14.4557 6.33087C14.5932 6.86427 14.6663 7.42353 14.6663 7.99987C14.6663 8.5762 14.5932 9.13547 14.4557 9.66887C13.7289 9.6312 13.0073 9.993 12.6185 10.6665C12.2299 11.3396 12.2769 12.1446 12.6722 12.7551C11.8773 13.5362 10.8875 14.1196 9.78234 14.4255C9.45154 13.7772 8.77747 13.3332 7.99967 13.3332C7.22187 13.3332 6.54781 13.7772 6.21703 14.4255C5.11189 14.1196 4.12203 13.5362 3.32715 12.7551C3.72238 12.1446 3.76945 11.3396 3.38087 10.6665C2.99199 9.993 2.27049 9.6312 1.54364 9.66887C1.40614 9.13547 1.33301 8.5762 1.33301 7.99987ZM4.53557 9.99987C4.95564 10.7275 5.07606 11.5639 4.91179 12.3491C5.18365 12.5425 5.47304 12.7101 5.77627 12.8494C6.37418 12.3141 7.15914 11.9999 7.99967 11.9999C8.84021 11.9999 9.62514 12.3141 10.2231 12.8494C10.5263 12.7101 10.8157 12.5425 11.0875 12.3491C10.9233 11.5639 11.0437 10.7275 11.4638 9.99987C11.8838 9.27233 12.548 8.74987 13.31 8.49953C13.3253 8.33433 13.333 8.16773 13.333 7.99987C13.333 7.83207 13.3253 7.6654 13.31 7.50027C12.548 7.24993 11.8838 6.72747 11.4638 5.99988C11.0437 5.2723 10.9233 4.43585 11.0875 3.6507C10.8157 3.45725 10.5263 3.28965 10.2231 3.15035C9.62514 3.68563 8.84021 3.99988 7.99967 3.99988C7.15914 3.99988 6.37418 3.68563 5.77627 3.15035C5.47304 3.28965 5.18365 3.45725 4.91179 3.6507C5.07606 4.43585 4.95564 5.2723 4.53557 5.99988C4.11551 6.72747 3.45137 7.24993 2.68935 7.50027C2.67405 7.6654 2.66634 7.83207 2.66634 7.99987C2.66634 8.16773 2.67405 8.33433 2.68935 8.49953C3.45137 8.74987 4.11551 9.27233 4.53557 9.99987ZM7.99967 9.99987C6.89507 9.99987 5.99967 9.10447 5.99967 7.99987C5.99967 6.89533 6.89507 5.99988 7.99967 5.99988C9.10427 5.99988 9.99967 6.89533 9.99967 7.99987C9.99967 9.10447 9.10427 9.99987 7.99967 9.99987ZM7.99967 8.66653C8.36787 8.66653 8.66634 8.36807 8.66634 7.99987C8.66634 7.63167 8.36787 7.3332 7.99967 7.3332C7.63147 7.3332 7.33301 7.63167 7.33301 7.99987C7.33301 8.36807 7.63147 8.66653 7.99967 8.66653Z" fill="#0E0E0E"/>
</svg>
